<?xml version="1.0" encoding="UTF-8"?>
<svg id="Layer_2" data-name="Layer 2" xmlns="http://www.w3.org/2000/svg" viewBox="0 0 363.27 455.12">
  <defs>
    <style>
      .cls-1 {
        fill: #333;
      }

      .cls-2 {
        fill: #1e1e1e;
      }

      .cls-2, .cls-3 {
        stroke: #1e1e1e;
        stroke-miterlimit: 10;
        stroke-width: 3px;
      }

      .cls-3 {
        fill: #e6e6e6;
      }
    </style>
  </defs>
  <g id="Layer_1-2" data-name="Layer 1">
    <path class="cls-2" d="M143.53,2.22c-3.85,.49-10.47,1.38-17.66,4.71-6.42,2.97-9.84,6.3-18.44,14.52-23.25,22.2-20.63,19.26-24.33,23.15-10.3,10.86-16.01,16.87-22.36,26.29-3.88,5.75-5.3,8.77-16.09,29.82-5.97,11.66-10.8,21.01-13.73,26.68-7.07,24.31-9.41,42.31-10.2,54.54-.31,4.82-.75,14.52-3.53,27.46-2.32,10.78-4.56,15.9-7.06,23.93-5.48,17.56-11.14,35.69-7.45,55.32,3.23,17.24,12.45,29.11,17.26,35.31,8.99,11.58,14.64,13.32,32.56,29.03,12.19,10.68,20.21,19.2,30.21,29.82,25.86,27.46,26.86,34.36,43.94,47.47,8.16,6.27,18.14,13.92,32.96,18.83,29.11,9.64,55.4,1.55,70.62-3.14,26.91-8.28,43.74-21.32,64.34-37.27,15.35-11.89,38.38-30.07,56.89-61.6,4.66-7.95,7.98-14.94,10.2-20.01-.59-1.81-1.52-4.55-2.75-7.85-3.39-9.12-6.16-14.67-7.45-17.66-4.19-9.68-.94-11.12-4.32-28.25-2.7-13.7-5.32-15.5-8.63-32.96-1.17-6.19-1.76-9.29-1.96-12.95-.71-12.94,2.77-20.1,5.49-32.17,.66-2.94,3.58-16.36,3.14-32.56-.46-17.06-4.47-30.6-6.67-38.06-3.47-11.73-5.2-17.6-7.45-21.19-1.07-1.7-3.38-5.12-4.32-10.2-.8-4.38-.16-7.7,0-9.02,1.37-11.19-13.67-24.36-20.79-30.6-11.5-10.08-21.79-15.55-31.78-20.79-15.81-8.29-28.57-12.64-37.66-15.69-15.45-5.19-26.02-8.65-40.8-9.42-8.46-.44-15.52,.16-20.4,.78-2.77-1.86-7.29-4.42-13.34-5.89-7.4-1.79-13.33-1.04-18.44-.39Z"/>
    <path class="cls-3" d="M146.14,36.62c-4.08,1.4-6.93,2.38-10.46,4.18-11.1,5.66-17.62,13.65-20.92,17.79-10.52,13.16-14.24,27.12-15.69,35.05-.64,1.7-1.58,4.23-2.62,7.32-1.91,5.7-5.9,17.58-7.32,29.82-.59,5.03,.13,2.68,0,20.92-.14,19.94-1.05,37.66-1.05,37.66-.54,10.45-.74,10.39-.52,12.55,1.4,13.9,10.64,24.25,18.31,30.86,2.98,1.63,7.2,4.28,11.51,8.37,7.07,6.72,10.46,13.64,12.03,16.74,4.89,9.66,11.98,20.21,26.16,41.33,8.5,12.66,7.09,8.37,22.49,29.29,19.71,26.76,29.56,40.14,36.1,54.4,.1,.22,3.28,7.17,8.89,15.69,8.75,13.3,13.84,15.9,15.69,16.74,2.07,.94,9.57,4.35,16.74,1.05,6.46-2.98,9.01-9.73,10.46-13.6,1.68-4.46,1.98-8.29,2.09-10.99,.6-14.34-2.86-26.23-3.14-27.2-5.35-18.61,4.74-32.17,8.89-61.21,1.83-12.83,2.98-31.98-1.57-56.5,1.05-10.11,2.09-20.23,3.14-30.34,1.24-.63,2.93-1.63,4.71-3.14,5.54-4.7,7.45-10.62,8.37-13.6,.47-1.54,2.66-9.02,.52-18.31-.99-4.31-3.1-8.11-7.32-15.69-1.11-1.99-3.8-6.73-7.85-12.55-3.05-4.4-5.94-8.07-8.37-10.99-1.87-4.13-3.74-9.03-5.23-14.65-2.53-9.51-3.17-18-3.14-24.59-.77-3.43-1.92-7.72-3.66-12.55-2.76-7.67-5.89-13.57-8.04-17.26-2.7-4.64-5.9-10.13-11.38-15.89-6.37-6.7-12.35-10.11-20.4-14.71-8.19-4.68-14.31-8.17-23.54-10.2-8.26-1.81-14.85-1.54-18.24-1.37-10.81,.53-19.13,3.32-25.63,5.56Z"/>
    <path class="cls-2" d="M154.71,135.42c2.05-5.61,3.28-7.27,3.73-7.85,1.24-1.6,3.08-3.96,5.89-4.71,5.1-1.35,10.16,3.5,10.59,3.92,6.42,6.32,5.06,17.18,3.73,27.86-.54,4.28-1.75,11.2-4.9,19.22-1.63,4.14-4.53,11.35-10.79,19.03-2.9,3.55-6.82,8.27-13.54,12.16-4.22,2.44-9.37,5.43-16.09,4.71-1.86-.2-6.91-.74-10.79-4.9-.75-.81-3.56-3.91-3.92-8.63-.61-7.89,6.19-12.99,6.67-13.34,1.41-1.43,3.32-3.43,5.49-5.89,3.05-3.45,7.18-8.16,11.57-14.91,3.66-5.62,8.15-12.53,10.2-20.01,.07-.25,.83-3.04,2.16-6.67Z"/>
    <path class="cls-2" d="M203.36,142.49c.87,2.67,1.76,4.41,3.53,7.85,4.7,9.11,7.05,13.66,8.04,15.3,3.38,5.6,6.16,9.32,9.02,13.14,4.58,6.12,6.15,7.47,7.45,8.44,3.68,2.71,7.12,3.68,10.79,4.71,4.3,1.21,8.58,2.41,13.93,1.37,2.36-.46,5.29-1.07,7.85-3.53,2.66-2.57,3.42-5.71,3.73-7.06,.79-3.45,.16-6.2,0-6.87-.98-4.02-3.44-6.49-4.51-7.45-1.62-1.23-3.91-2.99-6.67-5.1-6.74-5.16-7.24-5.57-7.85-6.08-3.56-3.01-5.92-5.51-9.42-9.22-3.37-3.58-5.07-5.39-7.26-8.24-2.41-3.15-4.22-6.01-6.87-10.2-2.61-4.13-3.04-5.1-4.71-7.26-2.28-2.95-4.51-5.1-6.08-6.47-.6-.52-2.01-1.6-4.12-1.96-.67-.11-2.73-.44-4.71,.59-.48,.25-2.35,1.3-3.73,5.1-1.36,3.75-1.05,6.88-.39,12.75,.4,3.57,.74,6.47,1.96,10.2Z"/>
    <path class="cls-2" d="M190.41,207.42c.43-.93,1.38-2.88,3.92-6.67,2.75-4.09,4.12-6.13,5.69-7.26,1.06-.76,3.68-2.65,7.06-2.55,3.23,.1,5.3,1.97,9.22,5.49,0,0,4.42,3.98,8.04,11.18,.52,1.04,1.19,2.49,.78,4.12-.49,1.99-2.29,3.06-2.75,3.33-2.22,1.33-4.68,1.01-6.47,.78-1.45-.18-1.81-.45-4.9-.98-1.07-.18-1.95-.31-2.55-.39-1.01,.24-2.47,.71-3.92,1.77-1.57,1.14-1.54,1.81-2.94,2.94-2.01,1.63-4.22,2-6.28,2.35-2.8,.48-4.21,.72-5.3,0-3-1.98-1.54-8.65-1.37-9.42,.37-1.68,.91-2.86,1.77-4.71Z"/>
    <path class="cls-2" d="M211.79,243.51c-3.7,.75-7.43,1.55-11.38,4.32-.79,.56-3.95,2.84-6.67,7.06-3.65,5.67-4.1,11.13-4.71,19.62-.53,7.4,0,13.27,.39,16.48,.2,1.63,1.07,8.41,3.92,17.26,1.8,5.58,3.97,10.21,8.24,19.22,4.67,9.86,5.1,9.85,8.63,17.66,2.25,4.98,3.86,8.94,7.06,16.87,3.01,7.44,3.29,8.42,6.28,15.69,0,0,1.74,4.24,8.24,17.26,1.1,2.21,2.52,4.98,5.49,7.45,1.16,.96,3.49,2.85,7.06,3.53,1.43,.27,5.12,.97,8.63-1.18,.48-.29,2.56-1.63,3.92-4.32,1.92-3.8,1.06-7.67,.39-10.99-1.17-5.84-1.58-11.81-2.75-17.66,0,0-1.92-9.62-3.14-18.83-1.02-7.73-1.22-14.28-1.57-27.07-.48-17.53,.15-16.01-.39-24.72-.2-3.15-1-14.74-4.32-29.43-2.66-11.78-4.84-16.21-7.85-20.01-2.09-2.63-5.5-6.82-11.38-8.63-4.85-1.49-9.03-.64-14.12,.39Z"/>
    <path class="cls-1" d="M25.82,331.79c2.07-.97-2.04-9.38-3.92-29.03-1.27-13.21-.78-23.09-.39-30.99,1.07-21.73,5.01-37.91,12.16-66.7,5.23-21.02,9.54-38.35,18.05-61.6,8.68-23.71,16.99-40.61,18.83-44.33,9.3-18.77,17.06-30.81,29.82-50.61,6.4-9.93,18.3-26.72,27.86-34.92,4.97-4.27,13.69-9.85,15.48-11.46,.21-.19,1.03-.96,2.34-1.46,.76-.29,1.28-.33,1.28-.36-.01-.1-7.52-.15-15.96,2.68-5.84,1.96-9.86,4.53-12.33,6.15-2.36,1.55-4.15,2.94-12.98,11.12-7.34,6.8-11.02,10.2-15.3,14.52-1.71,1.73-1.67,1.72-11.18,11.77-11.19,11.82-12.24,12.88-14.32,15.5-2.69,3.38-6.34,8.4-10,15.11-5.96,11.57-11.91,23.14-17.85,34.72-1.54,3.01-6.11,11.9-7.65,14.91-7.77,22.17-9.93,39.16-10.4,50.81-.24,5.93-.26,15.86-3.14,29.43-1.02,4.78-1.42,5.44-6.08,21.19-7.92,26.73-8.88,31.96-9.42,37.27-.44,4.37-1.18,12.26,.2,21.58,3.81,25.79,21.45,46.35,24.91,44.73Z"/>
  </g>
</svg>