<?xml version="1.0" encoding="UTF-8"?>
<svg id="Layer_2" data-name="Layer 2" xmlns="http://www.w3.org/2000/svg" viewBox="0 0 507.56 391.25">
  <defs>
    <style>
      .cls-1, .cls-2, .cls-3, .cls-4 {
        stroke-miterlimit: 10;
      }

      .cls-1, .cls-2, .cls-4 {
        fill: #fff;
      }

      .cls-1, .cls-4 {
        stroke: #000;
      }

      .cls-2, .cls-3 {
        stroke: #1e1e1e;
      }

      .cls-3 {
        fill: #1e1e1e;
      }

      .cls-4 {
        stroke-width: 3px;
      }
    </style>
  </defs>
  <g id="Layer_1-2" data-name="Layer 1">
    <path class="cls-4" d="M504.09,330.29c-10.46,26.68-54.41,4.71-64.34,23.54-9.94,18.84-72.72,40.55-107.24,35.05-34.53-5.49-40.29-22.49-75.86-10.46-35.57,12.03-89.45-.52-95.73-7.32-6.28-6.8-41.33-23.02-87.88-26.68-46.56-3.66-84.23-24.59-67.49-43.94,16.74-19.36,150.14-4.16,175.77-41.33,10.47-15.17,49.98-11.51,64.49-155.34v-.03C250.15,46.57,297.95,1.5,356.28,1.5s104.35,43.43,110.17,99.14l.38,18.82s-.02,.27-.06,.78c0,.15-.01,.3-.03,.44-.01,.15-.02,.33-.04,.52-.73,10.42-4.06,65.27,4.43,94.53,9.42,32.43,43.42,87.88,32.96,114.56Z"/>
    <path class="cls-1" d="M467.06,112.29c0,2.41-.08,4.8-.23,7.17l-.38-18.82c.4,3.83,.61,7.71,.61,11.65Z"/>
    <ellipse class="cls-3" cx="408.87" cy="106.91" rx="13.86" ry="22.49"/>
    <path class="cls-2" d="M404.43,102.2l-.42-.69c-.22-.37-.62-.61-1.05-.64l-.81-.05c-1.09-.07-1.63-1.36-.92-2.18l.53-.61c.28-.33,.39-.78,.28-1.2l-.2-.79c-.27-1.06,.79-1.97,1.79-1.55l.75,.32c.4,.17,.86,.13,1.22-.1l.68-.44c.92-.59,2.12,.14,2.02,1.23l-.07,.81c-.04,.43,.14,.86,.48,1.13l.63,.52c.84,.7,.52,2.06-.54,2.3l-.79,.18c-.42,.1-.77,.4-.93,.8l-.3,.75c-.4,1.02-1.8,1.13-2.36,.2Z"/>
    <path class="cls-2" d="M408.49,103.72l-.17-.28c-.09-.15-.25-.25-.42-.26l-.33-.02c-.44-.03-.66-.55-.37-.88l.21-.25c.11-.13,.16-.31,.11-.48l-.08-.32c-.11-.43,.32-.79,.72-.62l.3,.13c.16,.07,.35,.05,.49-.04l.28-.18c.37-.24,.85,.06,.81,.49l-.03,.32c-.02,.17,.06,.34,.19,.46l.25,.21c.34,.28,.21,.83-.22,.93l-.32,.07c-.17,.04-.31,.16-.37,.32l-.12,.3c-.16,.41-.72,.46-.95,.08Z"/>
    <path class="cls-2" d="M402.46,103.22l-.11-.19c-.06-.1-.17-.17-.28-.17h-.22c-.3-.03-.44-.38-.25-.6l.14-.17c.08-.09,.11-.21,.08-.32l-.05-.21c-.07-.29,.21-.53,.48-.42l.2,.09c.11,.05,.23,.04,.33-.03l.18-.12c.25-.16,.57,.04,.55,.33l-.02,.22c-.01,.12,.04,.23,.13,.31l.17,.14c.23,.19,.14,.56-.15,.62l-.21,.05c-.11,.03-.21,.11-.25,.22l-.08,.2c-.11,.28-.49,.31-.64,.05Z"/>
    <ellipse class="cls-3" cx="340.8" cy="106.91" rx="13.86" ry="22.49"/>
    <path class="cls-2" d="M336.35,102.2l-.42-.69c-.22-.37-.62-.61-1.05-.64l-.81-.05c-1.09-.07-1.63-1.36-.92-2.18l.53-.61c.28-.33,.39-.78,.28-1.2l-.2-.79c-.27-1.06,.79-1.97,1.79-1.55l.75,.32c.4,.17,.86,.13,1.22-.1l.68-.44c.92-.59,2.12,.14,2.02,1.23l-.07,.81c-.04,.43,.14,.86,.48,1.13l.63,.52c.84,.7,.52,2.06-.54,2.3l-.79,.18c-.42,.1-.77,.4-.93,.8l-.3,.75c-.4,1.02-1.8,1.13-2.36,.2Z"/>
    <path class="cls-2" d="M340.42,103.72l-.17-.28c-.09-.15-.25-.25-.42-.26l-.33-.02c-.44-.03-.66-.55-.37-.88l.21-.25c.11-.13,.16-.31,.11-.48l-.08-.32c-.11-.43,.32-.79,.72-.62l.3,.13c.16,.07,.35,.05,.49-.04l.28-.18c.37-.24,.85,.06,.81,.49l-.03,.32c-.02,.17,.06,.34,.19,.46l.25,.21c.34,.28,.21,.83-.22,.93l-.32,.07c-.17,.04-.31,.16-.37,.32l-.12,.3c-.16,.41-.72,.46-.95,.08Z"/>
    <path class="cls-2" d="M334.39,103.22l-.11-.19c-.06-.1-.17-.17-.28-.17h-.22c-.3-.03-.44-.38-.25-.6l.14-.17c.08-.09,.11-.21,.08-.32l-.05-.21c-.07-.29,.21-.53,.48-.42l.2,.09c.11,.05,.23,.04,.33-.03l.18-.12c.25-.16,.57,.04,.55,.33l-.02,.22c-.01,.12,.04,.23,.13,.31l.17,.14c.23,.19,.14,.56-.15,.62l-.21,.05c-.11,.03-.21,.11-.25,.22l-.08,.2c-.11,.28-.49,.31-.64,.05Z"/>
    <path class="cls-3" d="M354.66,152.96c20.19,1.06,25.45,2.62,43.75,0s20.92,7.32,16.74,11.51-10.99,14.65-37.14,15.17-40.88-14.65-39.01-17.26-4.34-10.46,15.66-9.42Z"/>
    <path class="cls-3" d="M343.24,153.87s-9.89,2.45-3.25,11.56"/>
  </g>
</svg>