<?xml version="1.0" encoding="UTF-8"?>
<svg id="Layer_2" data-name="Layer 2" xmlns="http://www.w3.org/2000/svg" viewBox="0 0 363.28 492.16">
  <defs>
    <style>
      .cls-1 {
        fill: #000017;
      }

      .cls-2 {
        fill: #999;
      }

      .cls-3, .cls-4 {
        fill: #b3b3b3;
      }

      .cls-5 {
        fill: #666;
      }

      .cls-6 {
        fill: #333;
      }

      .cls-7 {
        fill: #0d1128;
      }

      .cls-8, .cls-9 {
        fill: gray;
      }

      .cls-10 {
        fill: #311501;
      }

      .cls-11 {
        fill: #4d4d4d;
      }

      .cls-4 {
        stroke: #b3b3b3;
      }

      .cls-4, .cls-12, .cls-9 {
        stroke-miterlimit: 10;
      }

      .cls-12 {
        fill: #1a1a1a;
        stroke: #1a1a1a;
      }

      .cls-9 {
        stroke: gray;
      }
    </style>
  </defs>
  <g id="Layer_1-2" data-name="Layer 1">
    <rect class="cls-6" x="100.65" y="380.31" width="90.08" height="64.54"/>
    <path class="cls-7" d="M68.17,362.96c-5.22,.36-7.75,2.07-23.24,11.09-18.69,10.88-33.64,19.24-42.79,24.3-.12,1.31-.12,3.2,.53,5.28,1.65,5.27,6.25,7.81,9.51,10.04,10.13,6.91,15.78,16.52,18.49,21.13,5.07,8.62,3.28,10.71,7.4,14.26,5.72,4.94,12.72,3.99,23.77,4.23,0,0,15.71,.34,31.7,3.7,10.13,2.13,24.06,8.31,39.09,26.94,7.77,8.11,11.91,8.81,14.26,7.92,8.24-3.11,8.01-30.86-.53-52.83-4.65-11.95-11.26-19.75-24.3-34.87-22.79-26.41-36.57-42.39-53.89-41.21Z"/>
    <path class="cls-5" d="M247.79,240.22c1.09,1.14,.5,1.96,2.11,10.92,1.79,9.96,3.95,16.85,7.04,26.77,4.26,13.63,7.96,22.33,10.92,29.94,12.3,31.61,18.45,47.42,15.5,56.35-3.68,11.12-28.87,19.27-79.24,35.57-7.67,2.48-23.36,7.39-43.32,5.64-8.3-.73-15.21-1.34-21.48-5.28-20.62-12.97-17.23-51.33-16.91-54.59,6.98-69.86,113.92-117.26,125.38-105.31Z"/>
    <path class="cls-2" d="M66.06,303.26c-2,1.65,.23,4.12,2.11,20.08,2.13,17.97,3.45,29.18,1.76,42.97-.77,6.25-1.79,10.09,.35,14.79,2.71,5.94,8.48,8.83,15.14,11.62,13.17,5.52,23.4,9.8,41.21,11.97,8.67,1.06,21.02,1.84,35.92,.35-4.2-4.19-10.32-10.79-16.55-19.72-9.85-14.12-13.44-24.69-16.91-32.05-16-33.98-55.91-55.9-63.04-50.01Z"/>
    <path class="cls-10" d="M264.17,160.09c-.16-1.16-1.34-8.36-3.7-17.43-1.13-4.37-3.38-12.39-9.51-28-7.26-18.51-9.33-20.54-14.79-35.4-5.14-14-4.55-15.56-7.13-21.92-10.34-25.44-35.36-38.47-45.7-43.85C158.4,.51,135.61,.12,119.68,.02c-18.6-.11-38.17-.22-59.43,10.83C29.41,26.88,16.87,55.02,7.94,75.04-.25,93.44-.48,104.26,.28,111.23c.81,7.4,2.56,8.98,5.55,21.13,3.99,16.25,3.4,23.79,5.28,36.98,2.13,14.91,6.74,32.22,12.15,43.06,15.21,30.44,52.39,40.93,61.81,43.58,87.5,24.67,183.08-67.19,179.09-95.88Z"/>
    <path class="cls-4" d="M80.85,87.72c-5.78-.2-12.93-.42-21.84,.35-13.28,1.16-19.92,1.74-25.01,4.93-2.33,1.46-10.07,6.94-14.44,32.05-2.48,14.25-2.74,28.34,0,52.48,2.89,25.47,4.34,38.2,9.51,54.59,7.18,22.74,16.47,37.82,30.29,60.23,12.46,20.2,20.98,30.12,26.77,36.28,15.66,16.68,23.49,25.02,30.64,23.95,22.58-3.37,26.42-87.85,28.18-126.44,.74-16.19,1.79-52.83-11.62-93.68-9.35-28.5-19.56-40.2-30.64-42.97-4.68-1.17-12.26-1.43-21.84-1.76Z"/>
    <path class="cls-9" d="M96.35,88.77c-2.26,2.59-6.19,7.68-9.86,17.96-1.43,4.01-4.02,11.42-4.93,21.84-1.11,12.74,1.52,15.93,0,31.7-.58,5.98-1.37,9.87-3.87,13.74-3.66,5.66-7,5.12-10.57,9.51-7.06,8.69-4.86,24.22,1.76,33.81,2.21,3.2,5.5,7.96,10.21,8.1,5.87,.18,12.25-6.87,14.79-17.96,1.45-1.57,3.26-3.89,4.58-7.04,3.32-7.97,.1-13.14,2.82-15.5,3.52-3.05,14.45,.81,20.08,8.45,5.12,6.95,5.96,17.21,2.11,24.3-3.13,5.77-7.22,5.49-11.97,14.09-1.73,3.13-4.35,8.01-2.47,11.62,1.39,2.67,3.88,2.02,5.99,4.93,1.98,2.73,1.61,5.8,1.06,12.33-1.15,13.47-.28,8.64-1.06,14.44-2.41,17.95-5.23,23.45-5.64,37.33-.08,2.81-.03,4.88,0,6.34,.27,11.75,.57,24.87,4.58,30.29,7.31,9.87,35.12,5.2,56-5.28,35.78-17.97,53.13-54,64.1-76.78,4.85-10.07,8.14-18.73,10.21-24.65,1.97-.88,4.93-2.47,7.75-5.28,4.33-4.32,5.93-9.13,7.04-12.68,4.89-15.6,7.34-23.4,8.1-34.16,.56-7.91,1.14-16.01-1.41-26.41-2.4-9.81-6.48-17.2-9.51-21.84-1.17-.89-3.11-2.06-5.28-1.76-3.91,.54-5.31,5.4-7.75,5.11-1.92-.23-2.89-3.46-3.87-6.16-2-5.48-5.66-10.2-8.1-15.5-3.43-7.46-9.69-21.07-16.55-29.41-8.66-10.53-19.73-14.42-30.82-18.31-39.08-13.73-74.27,.71-83.12,8.45-2.37,2.08-4.4,4.4-4.4,4.4Z"/>
    <path class="cls-12" d="M135.44,183.87c-.31-1.73,.22-3.32,1.06-4.93,3.91-7.57,11.27-11.27,11.27-11.27,11.17-5.62,22.44-1.43,28.18,.7,7.8,2.9,8.89,5.82,9.16,6.69,1.31,4.3-2.09,8.62-2.82,9.51-3.18,1.77-7.9,4.36-13.74,7.4-5.96,3.1-6.63,3.33-7.4,3.52-9.14,2.31-17.11-3.24-21.31-6.16-2.36-1.64-4-3.23-4.4-5.46Z"/>
    <path class="cls-12" d="M92.12,190.21c-1.82-3.93-9.62-4-12.83-4.03-2.22-.02-5.78-.02-10.24,1.39-2.86,.9-9.5,2.98-14.26,9.51-4.08,5.59-4.65,11.36-4.75,13.74,.41,.6,1.03,1.44,1.94,2.29,3.07,2.89,6.68,3.55,8.63,3.87,5.47,.92,9.93-.62,12.15-1.41,0,0,9.72-3.47,18.31-17.61,.95-1.56,1.68-3.26,1.59-5.28-.01-.27-.07-1.47-.53-2.47Z"/>
    <path class="cls-3" d="M124.04,256.24c-.02,3.18,.01,6.47,.13,9.86,.17,4.8,.47,9.38,.88,13.74,.97-.26,2.2-.68,3.52-1.41,1.67-.92,2.89-1.99,3.7-2.82-1.62-3.53-2.58-6.5-3.17-8.63-.92-3.33-1.5-6.65-4.27-9.88-.32-.37-.6-.67-.79-.86Z"/>
    <path class="cls-1" d="M139.49,467.03c1.53-7.34,1.26-9.39,3.17-17.96,1.46-6.53,3.06-11.8,4.23-15.32,2.82-3.73,6.53-8.44,11.09-13.74,3.33-3.87,8.92-10.14,16.38-17.43,16.11-15.76,19.31-15.16,26.94-24.3,8.02-9.61,7.8-14.32,13.74-24.3,5.81-9.77,16.34-22.72,36.98-34.34,.7-16.38,1.41-32.75,2.11-49.13,1.83-.08,4.7,0,7.92,1.06,6.66,2.2,8.24,6.46,14.79,10.57,7.53,4.72,9.05,1.34,13.74,5.28,7.32,6.15,8,18.06,8.45,25.89,.18,3.06,.1,5.61,0,7.4,1.66,.63,4.19,1.75,6.87,3.7,6.74,4.9,9.58,11.53,10.57,13.74,1.2,2.67,7.49,12.35,20.08,31.7,16.64,25.58,28.92,30.09,26.41,36.98-1.53,4.2-7.16,5.43-33.81,8.98-23.3,3.11-45.69,5.74-50.72,6.34-26.17,3.14-39.26,4.71-49.13,7.92-13.55,4.42-33.72,14.15-54.41,38.57-2.53,2.24-6.46,5.52-11.62,8.98-2.52,1.69-24.47,16.26-29.06,11.62-2.19-2.21,1.97-6.34,5.28-22.19Z"/>
    <path class="cls-8" d="M98.81,227.19c-.82-.41-5.5,7.39-5.81,7.92-3.48,5.84-11.11,18.81-12.15,28.79-.48,4.62,0,8.98,0,8.98,.16,1.41,.36,2.59,.53,3.43,.21-1.4,.62-3.44,1.45-5.81,.66-1.88,1.21-2.88,3.04-6.34,2-3.8,4.29-7.45,6.08-11.36,1.42-3.11,1.96-4.86,3.04-4.89,1.2-.03,2.23,2.11,2.84,3.67-.77-2.09-1.65-5.18-1.78-8.95-.31-8.64,3.52-15.08,2.77-15.45Z"/>
    <path class="cls-11" d="M89.3,296.57c-.45-1.06,.94-2.58,1.76-3.52,2.72-3.13,6.22-4.18,7.4-4.58,3.16-1.07,7.5-3.48,12.33-9.51,.82-.52,2.01-1.12,3.52-1.41,4-.77,7.22,1.18,8.1,1.76,1.42-.87,3.5-2.01,6.16-2.99,.52-.19,2.38-.87,3.92-1.19,1.6-.33,5.73-.89,11.62,1.85,1.21,.51,2.62,1.02,4.23,1.45,1.86,.5,3.55,.77,5.02,.92,2.07,.22,4.2,.5,6.38,.84,5.19,.8,10.01,1.83,14.44,2.99-1.89,1.39-4.36,3.07-7.4,4.75-2.54,1.41-7.07,3.71-13.03,5.55-5.66,1.74-9.78,2.2-17.43,3.04-6.53,.72-10.63,1.17-16.38,.92-5.02-.21-6.84-.76-12.15-.53-2.46,.11-4.06,.32-8.72,.53-7.7,.35-9.38,.05-9.77-.88Z"/>
    <path class="cls-11" d="M109.11,243.96c-1-.78-2.87,.07-3.83,.79-1.5,1.14-1.87,2.81-2.38,5.15-.43,1.99-.1,2.3,0,2.38,.62,.48,2.08-.45,3.04-1.06,1.38-.88,2.65-1.69,3.3-3.3,.4-.99,.92-3.14-.13-3.96Z"/>
    <path class="cls-6" d="M129.58,240.39c1.07-.46,2.03-.13,3.96,.53,1.64,.56,3.44,1.17,3.83,2.64,.02,.07,.23,.92-.13,1.58-.81,1.48-4.18,1.58-8.32,.4-.44-.13-1.12-.42-1.45-1.06-.68-1.32,.54-3.42,2.11-4.09Z"/>
  </g>
</svg>