<?xml version="1.0" encoding="UTF-8"?>
<svg id="Layer_2" data-name="Layer 2" xmlns="http://www.w3.org/2000/svg" viewBox="0 0 218.22 208.57">
  <defs>
    <style>
      .cls-1 {
        fill: #f2f2f3;
      }

      .cls-2 {
        fill: #e6e7e8;
      }

      .cls-3 {
        fill: #a7a9ac;
      }

      .cls-4 {
        fill: #1e1e1e;
      }

      .cls-5 {
        fill: #231f20;
      }

      .cls-6, .cls-7 {
        fill: none;
        stroke: #231f20;
        stroke-miterlimit: 10;
      }

      .cls-7 {
        stroke-width: 2.16px;
      }
    </style>
  </defs>
  <g id="Layer_2-2" data-name="Layer 2">
    <path class="cls-5" d="M50.03,108.81c-.9,.13-.89-.23-1.1-.47-1.11-1.53-1.99-3.23-3.04-4.8,0,0-.26-.4-.26-.4,.04-.22,.23-.54,.33-.8l.38-.26c.29,0,.66-.06,.87-.01l.27,.4c.35,.5,1.27,1.89,1.62,2.42,.52,.82,1,1.67,1.39,2.56,.11,.31,.42,.51-.16,1.2l-.31,.17h0Z"/>
    <path class="cls-5" d="M31.09,103.37c.93,.42,.82,1.02,.93,1.58,.54,3.66,.01,7.43-1.18,10.92-.24,.22-.65,.37-.97,.54l-.44-.17c-.13-.34-.36-.71-.42-1,.26-.74,.45-1.5,.63-2.27,.44-2.06,.56-4.17,.58-6.28,0,0-.02-1.59-.02-1.59,.01-.54-.23-1.02,.53-1.68l.35-.06h0Z"/>
    <path class="cls-5" d="M174.35,106.15h-.14c.51,0,1.78,0,2.28,.02,0,0-.14,0-.14,0l-2-.02h0Z"/>
    <g>
      <path class="cls-1" d="M212.59,128.94c-4.41,3.5-10.36,2.07-10.91,1.93-4.64-1.19-8.55-5-10.75-10.31-2.01,2.55-5.39,5.78-10.39,7.21-1.57,.45-5.31,1.52-9.52,.19-2.48-.78-4.34-2.15-6.3-3.94,.72,4.57,1.76,9,3.26,13.32,7.6,21.89,7.98,22.65,7.98,22.65,2.24,4.61,4.39,7.89,4.56,13.2,.06,1.88,.26,8.48-4.67,13.88-4.27,4.67-9.77,5.55-11.45,5.75-3.25-.14-8,0-13.36,1.62-6.28,1.88-10.23,4.82-12.23,6.13-12.21,8.01-34.87,9.8-49.65,1.79-6.08-3.29-9.11-7.3-18.48-10.39-6.99-2.31-12.37-2.91-12.37-2.91-8-.89-10.45,.72-13.72-1.34-5.36-3.36-5.54-11.95-5.53-13.79,.04-9.66,6.22-15.91,10.25-21.65,8.19-11.68,10.49-25.57,10.62-38.97-.72,1.24-1.57,2.54-2.56,3.84-3.14,4.13-5.61,7.38-9.61,8.23-5.45,1.17-10.48-2.83-15.52-6.85-.91-.72-1.76-1.46-2.55-2.19-.77,2.02-1.92,4.07-3.57,5.95-3.16,3.59-9.96,8.62-15.57,6.49-1.18-.45-2.65-1.34-4.48-3.88-4.35-6.08-7.27-16.91-2.82-27.2,2.92-6.77,10.14-15.86,18.62-15.48,3.92,.18,6.81,2.33,11.5,5.82,5.17,3.84,8.39,8.13,11.24,12,.55,.75,1.07,1.47,1.55,2.18,.22-4.1,.9-7.47,1.58-9.99,1.21-4.54,2.45-9.16,5.4-9.75,1.66-.33,3.42,.7,4.8,1.84-1.83-13.46-4.93-15.58-4.38-29.1,.46-11.09,1.03-25.29,11.22-36.94C77.98,3.14,99.16,1.63,104.6,1.26c3.86-.28,7.85-.11,7.85-.11,3.71,.15,10.87,.52,18.79,3.36,3.71,1.33,15.39,5.71,23.73,17.35,3.05,4.25,4.84,8.34,6.14,12.03,5.88,16.78,2.76,29.13,2.32,53.2-.03,1.49-.05,2.95-.08,4.4,1.03-.46,1.98-.64,2.61-.63,3.45,.05,6.98,6.04,9.38,15.3,.44-.59,.91-1.22,1.43-1.85,2.49-3.03,4.92-5.13,6.54-6.39,2.34-1.82,4.59-3.58,7.91-4.82,1.74-.64,6.2-2.31,10.71-1.25,8.34,1.97,11.82,12.09,12.78,14.86,.5,1.48,5.55,16.15-2.13,22.25Z"/>
      <path class="cls-5" d="M212.6,128.96c-3.55,2.87-8.74,3.17-12.93,1.54-4.28-1.77-7.38-5.59-9.18-9.76,0,0,.78,.11,.78,.11-1.55,2.02-3.44,3.8-5.61,5.18-6.83,4.31-15.54,4.45-21.37-1.56,0,0,1-.54,1-.54,.94,6.6,3.04,12.86,5.31,19.12,1,2.96,3.97,11.24,4.98,14.13,0,0,.85,2.33,.85,2.33,.03,.09,.08,.21,.09,.23l.14,.28s.28,.56,.28,.56c1.69,3.35,3.58,6.74,4.05,10.65,1.54,10.91-5.33,20.98-16.54,22.26-8.59-.41-17.17,1.99-24.21,6.95-11.01,7.37-25.1,9.03-37.99,7.03-4.33-.74-8.59-2-12.55-3.99-4.03-1.91-7.35-4.85-10.99-7.01-7.31-4.21-15.98-6.48-24.38-6.9-2.2-.09-4.29,.14-6.54,0-3.61-.18-6.54-3.13-7.85-6.32-3.07-7.28-1.97-15.99,2.26-22.53,2.28-3.8,5.22-7.06,7.48-10.64,2.32-3.57,4.1-7.48,5.5-11.5,2.76-8.09,3.73-16.72,3.81-25.3l1.69,.47c-10.42,17.16-17.56,15.71-31.67,3.27,0,0,1.53-.36,1.53-.36-2.64,7.39-13.11,16.47-21.25,12.61-1.24-.65-2.23-1.6-3.07-2.58-3.25-4-5.13-8.83-5.88-13.82-1.21-7.5,.87-15.37,5.31-21.51,4.19-6.11,11.58-12.11,19.45-9.58,2.53,.85,4.61,2.34,6.6,3.77,6.2,4.12,11.13,10.01,15.27,16.08,0,0-1.83,.51-1.83,.51,.21-4.6,1.19-9.11,2.54-13.51,1.58-5.89,5.14-9.92,10.88-5.11,0,0-1.63,.91-1.63,.91-.64-5-1.89-9.77-3.12-14.68-1.25-4.96-1.49-10.2-1.24-15.28,.32-15.71,3.43-31.13,16.28-41.55C80.84,3.05,96.93-.2,112.13,.14c27.84,.57,49.52,17.67,52.91,45.91,1.28,10.12,.19,20.27-.23,30.37-.25,5.03-.37,10.03-.45,15.08,0,0-1.4-.93-1.4-.93,8.08-3.88,11.76,9.84,13.36,15.33,0,0-1.76-.34-1.76-.34,7.05-9.6,22.13-20.92,33.44-11.6,7.69,6.48,13.86,28.24,4.62,35h0Zm-.07-.08c7.01-6.3,3.15-18.95-.3-26.27-9.38-19.39-28.52-7.21-37.32,5.81-1.16-4.23-4.85-19.51-11.16-16.03,0,0-1.42,.64-1.42,.64,.05-10.58,.76-21.23,1.22-31.79,1.63-26.81-9.53-49.72-36.78-57.08-14.38-3.57-30.11-2.55-43.93,2.82-14.18,5.34-24.55,17.7-26.88,32.68-.89,4.88-1.2,9.87-1.4,14.9-.24,4.98-.02,9.9,1.19,14.74,1.49,5.67,2.84,11.55,3.51,17.41-1.82-1.36-4.49-4.47-6.87-2.83-1.48,1.2-2.21,3.48-2.8,5.35-1.29,4.22-2.25,8.6-2.45,13.03,0,0-.16,2.87-.16,2.87-4.65-6.77-9.55-13.39-16.47-17.94-3.71-2.88-7.98-5.06-12.64-3.42-6.62,2.32-11.34,8.69-14,14.97-3.55,8.66-2,19.41,3.81,26.7,1.42,1.76,3.3,2.87,5.57,2.85,6.59-.26,13.19-6.25,15.49-12.3,0,0,.49-1.27,.49-1.27,13.49,11.78,19.43,15.25,29.86-1.88,0,0,1.73-2.96,1.73-2.96,.01,9.85-.74,19.86-4.01,29.28-1.45,4.14-3.29,8.18-5.7,11.87-4.72,7.06-11.21,13.49-11.25,22.41-.06,4.91,.86,10.87,5.31,13.7,2.78,1.56,6.02,.57,9.18,.83,2.19,.08,4.42,.27,6.57,.69,6.45,1.26,12.87,3.05,18.57,6.49,3.8,2.28,7.05,5.16,10.88,6.98,3.78,1.91,7.91,3.15,12.11,3.87,12.5,1.98,26.25,.41,36.94-6.72,3.61-2.47,7.63-4.46,11.88-5.64,4.24-1.21,8.68-1.68,13.07-1.48,2.56-.35,6.38-1.57,8.73-3.53,8.23-6.26,8.33-17.97,3.22-26.33,0,0-.56-1.12-.56-1.12,0,0-.28-.56-.28-.56l-.14-.28c-.08-.16-.1-.24-.14-.34-2.91-8.2-6.37-17.74-9-26.02-1.09-3.77-1.83-7.66-2.4-11.54,0,0,1.26,1.17,1.26,1.17,7.38,7.76,19.46,4.47,25.46-3.29,0,0,.49-.6,.49-.6l.29,.71c1.63,4.04,4.51,7.77,8.57,9.56,3.93,1.72,9.24,1.62,12.63-1.08h0Z"/>
    </g>
    <path class="cls-6" d="M175.71,105.49s.07-.08,.11-.11c-.03,.14-.08,.27-.14,.4,0-.01,.01-.03,.02-.04"/>
    <path class="cls-6" d="M176.01,105.58c-.21,.23-.4,.48-.57,.74"/>
    <path class="cls-6" d="M176.25,105.68c-.07,.15-.15,.3-.26,.43-.13,.15-.31,.27-.44,.43"/>
  </g>
  <g id="Layer_3" data-name="Layer 3">
    <path class="cls-2" d="M175.71,107h0c-.99,1.36-1.77,2.6-2.39,3.67l-.09,.05c-.07-1.27-.07-2.78,.04-4.51h0c.04-.62,.09-1.26,.16-1.93,.01-.13,.02-.27,.04-.41,.11-.95,.25-1.86,.42-2.7,.65,1.75,1.26,3.69,1.81,5.82Z"/>
    <path class="cls-2" d="M50.48,108.8l-.43-.31c-.8-1.45-1.89-3.27-3.26-5.33-.21-.31-.42-.62-.64-.95,.14-2.73,.5-5.14,.92-7.19,.41,1.25,.77,2.49,1.13,3.68,.26,.89,.5,1.75,.71,2.58,.1,.38,.19,.74,.28,1.11,.62,2.53,1.03,4.71,1.29,6.4Z"/>
    <path class="cls-3" d="M33.98,116.54c-.02,.43-.12,1.53-.47,3.01-.43-.34-.86-.68-1.29-1.02-.91-.72-1.76-1.46-2.55-2.19,1.71-4.41,1.68-8.75,1.47-11.2,1.54,2.61,3.18,6.58,2.85,11.4Z"/>
    <path class="cls-5" d="M60.77,113.81c-6.03,10.01-12.52,17.63-24.11,9.29-2.69-1.9-5.09-4.03-7.2-6.54,0,0,.41-.44,.41-.44,2.72,1.71,5.28,3.65,7.88,5.38,10.71,7.4,15.53-.25,21.3-8.69,0,0,1.73,1.01,1.73,1.01h0Z"/>
    <path class="cls-5" d="M57.3,85.08c-5.25-4.09-6.5,1.29-7.81,5.47-.88,3.03-1.45,5.19-1.95,8.19-.32,1.36,.09,2.49-1.38,3.48-.77-.65-.91-1.28-.88-1.9,.08-1.71,.47-4.63,.65-5.53,1.06-4.15,2.11-13.01,7.45-13.55,2.11-.11,3.77,1.04,5.19,2.3,0,0-1.27,1.54-1.27,1.54h0Z"/>
    <path class="cls-5" d="M50.03,108.81c-2.01-2.38-3.74-5.13-5.64-7.6-1.88-2.53-3.76-5.05-5.89-7.32,0,0-.24-.62-.24-.62-.06,.37,.41,.93,.86,.9,0,0-.63-.29-.63-.29-1.63-1.75-3.4-3.36-5.3-4.79-3.71-2.62-7.55-6.19-12.32-5.85-7.13,.54-12.27,6.69-15.61,12.59-2.27,4.15-3.37,8.84-3.23,13.55,.14,4.69,1.45,9.4,3.84,13.43,2.39,4.37,6,6.73,10.91,4.84,6.51-2.44,11.78-8.32,13-15.24,.64-2.94,1.1-6,.9-8.96,0,0,.46-.08,.46-.08,1.49,5.55,.89,11.57-2.14,16.53-3.68,5.95-12.12,12.61-19.45,9.54-2.46-1.21-4.03-3.39-5.39-5.61-5.18-8.68-5.64-20.09-.69-28.96,3.62-6.45,9.39-13.15,17.31-13.63,5.36-.35,9.56,3.45,13.54,6.36,1.98,1.52,3.81,3.22,5.49,5.05,0,0-.63-.29-.63-.29,.13,0,.19,.02,.29,.06,.32,.08,.64,.61,.59,.86,0,0-.24-.62-.24-.62,2.17,2.38,4.11,4.93,5.94,7.56,1.88,2.62,3.3,5.48,4.57,8.44,0,0-.32,.15-.32,.15h0Z"/>
    <path class="cls-3" d="M190.92,120.58c-.86,1.09-1.99,2.32-3.38,3.47-.15-1.05-.22-2.14-.2-3.26,.01-2.79,.57-5.75,1.67-8.72,.17,3.1,.84,5.98,1.91,8.51Z"/>
    <path class="cls-5" d="M190.92,120.58c.01,1.62-.92,2.61-1.86,3.5-.94,.91-1.96,1.75-3.07,2.48-6.97,4.61-16.19,4.68-21.96-1.78,0,0,1.35-1.48,1.35-1.48,5.46,5.21,13.16,5.06,19.43,1.36,1.02-.6,1.98-1.3,2.88-2.08,.9-.8,1.67-1.66,3.24-2h0Z"/>
    <path class="cls-5" d="M164.71,124.04c1.37,3.15,1.73,6.42,2.72,9.59,2.67,8.24,6.19,17.94,9.16,26.11,1.05,2.17,2.24,4.25,3.15,6.52,3.26,7.95,1.37,18.25-5.71,23.55-2.79,2.14-6.15,3.44-9.62,3.87-4.27-.18-8.56,.29-12.65,1.47-4.08,1.16-7.89,3.05-11.41,5.48-3.63,2.51-7.75,4.37-11.98,5.6-12.68,3.54-26.74,3.34-38.78-2.5-4.05-1.94-7.39-4.88-11-7.03-5.42-3.28-11.74-5.05-17.96-6.25-3.14-.6-6.3-.74-9.5-.65-2.24,.07-4.82,.21-6.85-1.08-1.03-.64-1.98-1.42-2.7-2.36-4.07-5.52-4.34-13.25-2.36-19.62,2.01-6.34,6.9-11.37,10.36-16.7,5.82-8.99,8.38-19.71,9.09-30.31,.19-2.1,.28-4.45,1.26-6.42,1.44,4.32,.46,8.72,0,13.09-1.23,8.68-3.9,17.3-8.7,24.71-2.38,3.75-5.29,6.97-7.46,10.6-4.37,6.83-5.43,16.58-.65,23.4,2.68,3.74,7.18,2.51,11.25,2.68,2.19,.07,4.44,.27,6.6,.69,6.48,1.25,12.92,3.04,18.65,6.49,3.82,2.29,7.07,5.16,10.87,6.95,11.46,5.55,25.17,5.83,37.33,2.49,4.1-1.17,7.97-2.89,11.49-5.29,3.62-2.47,7.68-4.47,11.94-5.65,4.26-1.21,8.72-1.67,13.13-1.47,2.4-.29,6.35-1.57,8.65-3.48,5.25-3.88,7.36-10.75,6.55-17.08-.4-3.58-2.22-6.93-3.87-10.23-.17-.33-.44-.87-.56-1.2-.54-1.48-1.97-5.54-2.51-7.08-1.89-5.61-4.75-13.35-6.44-18.96-.82-3.23-1.92-6.55-1.51-9.93h0Z"/>
    <path class="cls-5" d="M57.02,84.44c-.63-2.41-.81-4.92-1.44-7.34-1.11-4.91-2.71-9.85-3-14.95-.31-12.63,.26-26.03,6.39-37.4C67.82,8.47,86.81,1.23,104.47,.23c23.27-1.91,47.86,8.1,56.76,30.98,6.02,14.36,4.44,30.11,3.63,45.22-.15,3.65-.33,7.64-.38,11.3-.03,1.26,.02,2.52-.41,3.77,0,0-1.41-.03-1.41-.03-.61-2.12-.13-5.37-.18-7.57,.19-12.51,2.04-25.13,.54-37.58-2.56-21-15.68-36.66-36.24-42.11-22.76-5.53-53.71-.52-65.97,21.53-4.86,8.79-5.84,18.9-6.18,28.82-.24,4.98-.02,9.89,1.19,14.73,1.17,4.83,2.63,9.81,3.04,14.89,0,0-1.82,.25-1.82,.25h0Z"/>
    <path class="cls-4" d="M114.16,72.88c-1.54-1.26-3.85-1.28-5.49-.55-2.89,1.28-3.81,4.93-3.52,7.51,.08,.75,.42,3.77,3.08,5.33,2.25,1.33,5.29,1.09,7.07-.51,2.85-2.55,1.11-7.37,.4-9.31-.54-1.51-1.1-2.11-1.54-2.47Z"/>
    <path class="cls-4" d="M95.1,33.33c-2.17,.04-3.77,.62-5.11,1.12-.77,.29-3.06,1.2-5.73,3.27-5.47,4.25-7.78,9.7-8.27,10.89-1.49,3.67-2.75,6.77-1.69,10.48,1.54,5.4,6.78,7.75,7.85,8.23,5.04,2.26,11.21,1.67,15.61-1.59,3.53-2.6,4.78-6.07,5.79-8.86,2.85-7.87,2.78-19.26-2.68-22.3-1.4-.78-3.65-1.28-5.77-1.24Z"/>
    <path class="cls-4" d="M120.88,35.39c-1.27,1.21-1.72,2.6-2.21,4.19-.58,1.88-1.1,4.61-.24,12.16,.58,5.08,.89,7.66,2.04,9.93,.77,1.52,2.2,4.34,5.32,6.24,4.54,2.76,10.52,2.27,14.82-.42,.88-.55,4.05-2.59,5.61-6.57,2.63-6.71-1.48-13.36-3.57-16.75-1.59-2.57-6.05-9.79-13.51-10.75-1.15-.15-5.46-.7-8.26,1.96Z"/>
    <path class="cls-6" d="M175.7,105.51s.07-.08,.11-.11c-.03,.14-.08,.27-.14,.4,0-.01,.01-.03,.02-.04"/>
    <path class="cls-6" d="M176,105.6c-.21,.23-.4,.48-.57,.74"/>
    <path class="cls-7" d="M175.5,106.54s-.32,.21-.32,.21c-.3-1.4-.51-3.67-1.49-6.04-1.41-3.41-3.79-9.18-7.57-9.48-.72-.06-1.96-.3-2.98,.26"/>
    <path class="cls-6" d="M176.25,105.69c-.07,.15-.15,.3-.26,.43-.13,.15-.31,.27-.44,.43"/>
    <path class="cls-5" d="M173.24,110.71c2.21-5.66,6.8-10.14,12.13-14.16,5.67-4.2,14.01-7.06,20.63-3.37,8.11,4.81,11.77,16.38,12.2,25.33,.47,10.54-7,16.83-17.29,13.89-6.03-2.01-9.96-7.77-11.57-13.67-.66-2.35-.82-4.86-.08-7.23h.16c1.48,4.47,1.91,8.95,4.59,12.83,2.42,3.72,6.34,6.57,10.75,6.65,4.35,.33,8.78-1.7,10.34-5.92,2.85-7.8-.58-19.17-5.1-25.85-7.96-11.35-21.21-4.89-29.21,2.86-1.7,1.6-3.16,3.35-4.64,5.17,0,0,.11-.33,.1-.29,0,.17,0,.17-.1,.3-.85,1.16-1.75,2.3-2.77,3.39,0,0-.09,.1-.09,.1,0,0-.05-.02-.05-.02h0Z"/>
  </g>
</svg>